<svg width="188" height="258" viewBox="0 0 188 258" fill="none" xmlns="http://www.w3.org/2000/svg">
<g clip-path="url(#clip0_197_1281)">
<path d="M43.1941 83.1155C51.2553 53.0947 66.9799 25.6841 88.8262 3.57133L91.0091 1.36191C92.6491 -0.29816 95.3344 -0.28218 96.9546 1.39729L100.27 4.83413C121.421 26.7588 136.719 53.6498 144.759 83.0339C145.446 85.5472 143.554 88.026 140.949 88.026H46.96C44.3953 88.026 42.529 85.5925 43.1941 83.1155Z" fill="url(#paint0_linear_197_1281)"/>
<path fill-rule="evenodd" clip-rule="evenodd" d="M42.0051 144.376C39.5908 144.376 37.4503 145.785 37.5951 148.732C38.119 159.403 39.5278 168.325 40.749 177.199L41.0079 178.289C41.4061 180.535 43.4302 181.944 45.632 181.944H142.219C144.243 181.944 146.013 180.578 146.527 178.62L146.845 177.408C148.472 169.734 149.411 161.751 150.401 148.43C150.598 145.785 148.544 144.376 146.297 144.376H42.0051ZM71.4599 156.586C70.9412 156.586 70.5207 157.006 70.5207 157.525V168.795C70.5207 169.314 70.9412 169.734 71.4599 169.734H116.54C117.059 169.734 117.48 169.314 117.48 168.795V157.525C117.48 157.006 117.059 156.586 116.54 156.586H71.4599Z" fill="url(#paint1_linear_197_1281)"/>
<path fill-rule="evenodd" clip-rule="evenodd" d="M65.8245 196.031C65.8245 193.438 63.7221 191.335 61.1286 191.335C58.5351 191.335 56.4327 193.438 56.4327 196.031V208.174L35.2239 223.569C32.0202 221.028 27.9681 219.511 23.5616 219.511C13.1878 219.511 4.77808 227.92 4.77808 238.294C4.77808 248.668 13.1878 257.078 23.5616 257.078C33.9355 257.078 42.3452 248.668 42.3452 238.294C42.3452 235.686 41.8135 233.202 40.8527 230.944L63.0737 214.815C65.355 212.937 65.8245 210.665 65.8245 208.174V196.031ZM32.9534 238.294C32.9534 243.481 28.7486 247.686 23.5616 247.686C18.3747 247.686 14.1698 243.481 14.1698 238.294C14.1698 233.107 18.3747 228.903 23.5616 228.903C28.7486 228.903 32.9534 233.107 32.9534 238.294ZM126.871 191.335C124.278 191.335 122.175 193.438 122.175 196.031V208.174V208.174C122.175 210.665 122.175 212.937 124.926 214.815L147.352 230.48C146.262 232.859 145.655 235.506 145.655 238.294C145.655 248.668 154.064 257.078 164.438 257.078C174.812 257.078 183.222 248.668 183.222 238.294C183.222 227.92 174.812 219.511 164.438 219.511C160.211 219.511 156.309 220.907 153.171 223.264L131.567 208.174V196.031C131.567 193.438 129.465 191.335 126.871 191.335ZM155.046 238.294C155.046 243.481 159.251 247.686 164.438 247.686C169.625 247.686 173.83 243.481 173.83 238.294C173.83 233.107 169.625 228.903 164.438 228.903C159.251 228.903 155.046 233.107 155.046 238.294ZM93.9999 191.335C96.5934 191.335 98.6958 193.438 98.6958 196.031V220.103C106.797 222.188 112.783 229.542 112.783 238.294C112.783 248.668 104.374 257.078 93.9999 257.078C83.626 257.078 75.2164 248.668 75.2164 238.294C75.2164 229.542 81.2025 222.188 89.304 220.103V196.031C89.304 193.438 91.4064 191.335 93.9999 191.335ZM103.392 238.294C103.392 243.481 99.1868 247.686 93.9999 247.686C88.813 247.686 84.6081 243.481 84.6081 238.294C84.6081 233.107 88.813 228.903 93.9999 228.903C99.1868 228.903 103.392 233.107 103.392 238.294Z" fill="#3180FF"/>
<path fill-rule="evenodd" clip-rule="evenodd" d="M43.6413 97.4177C41.7664 97.4177 39.9975 98.3569 39.6254 100.478C37.5152 112.634 37.3444 122.776 37.5559 131.239C37.608 133.323 39.3123 134.985 41.3968 134.985H146.604C148.688 134.985 150.392 133.323 150.444 131.239C150.444 122.306 151.048 114.513 148.375 100.478C147.878 98.6705 146.234 97.4177 144.359 97.4177H43.6413ZM71.4599 109.627C70.9412 109.627 70.5207 110.048 70.5207 110.566V121.836C70.5207 122.355 70.9412 122.776 71.4599 122.776H116.54C117.059 122.776 117.48 122.355 117.48 121.836V110.566C117.48 110.048 117.059 109.627 116.54 109.627H71.4599Z" fill="url(#paint2_linear_197_1281)"/>
</g>
<defs>
<linearGradient id="paint0_linear_197_1281" x1="94" y1="3.50001" x2="94" y2="88.0259" gradientUnits="userSpaceOnUse">
<stop stop-color="#36E7FC"/>
<stop offset="1" stop-color="#3CC5FE"/>
</linearGradient>
<linearGradient id="paint1_linear_197_1281" x1="122.059" y1="182.125" x2="122.059" y2="144.169" gradientUnits="userSpaceOnUse">
<stop stop-color="#3180FF"/>
<stop offset="1" stop-color="#3FB1FE"/>
</linearGradient>
<linearGradient id="paint2_linear_197_1281" x1="94" y1="97.4177" x2="94" y2="134.985" gradientUnits="userSpaceOnUse">
<stop stop-color="#3BC6FD"/>
<stop offset="1" stop-color="#32ACFF"/>
</linearGradient>
<clipPath id="clip0_197_1281">
<rect width="188" height="258" fill="white"/>
</clipPath>
</defs>
</svg>
