<svg width="252" height="239" viewBox="0 0 252 239" fill="none" xmlns="http://www.w3.org/2000/svg">
<path d="M96.5426 62.1011C101.137 44.7176 110.1 28.8455 122.551 16.0412L123.795 14.7618C124.73 13.8006 126.26 13.8098 127.184 14.7823L129.074 16.7724C141.129 29.4679 149.848 45.039 154.43 62.0538C154.822 63.5091 153.744 64.9444 152.259 64.9444H98.689C97.2272 64.9444 96.1635 63.5354 96.5426 62.1011Z" fill="url(#paint0_linear_197_1286)"/>
<path fill-rule="evenodd" clip-rule="evenodd" d="M95.8649 97.5742C94.4889 97.5742 93.2689 98.39 93.3514 100.096C93.65 106.275 94.4529 111.442 95.149 116.58L95.2965 117.211C95.5235 118.512 96.6772 119.327 97.9321 119.327H152.983C154.137 119.327 155.145 118.537 155.438 117.403L155.62 116.701C156.547 112.258 157.082 107.635 157.647 99.9214C157.759 98.39 156.588 97.5742 155.307 97.5742H95.8649ZM112.653 104.644C112.357 104.644 112.118 104.887 112.118 105.188V111.714C112.118 112.014 112.357 112.258 112.653 112.258H138.347C138.643 112.258 138.882 112.014 138.882 111.714V105.188C138.882 104.887 138.643 104.644 138.347 104.644H112.653Z" fill="url(#paint1_linear_197_1286)"/>
<path fill-rule="evenodd" clip-rule="evenodd" d="M109.441 127.485C109.441 125.983 108.243 124.766 106.765 124.766C105.286 124.766 104.088 125.983 104.088 127.485V134.516L91.9999 143.43C90.1739 141.959 87.8644 141.08 85.3529 141.08C79.4402 141.08 74.647 145.95 74.647 151.957C74.647 157.964 79.4402 162.834 85.3529 162.834C91.2655 162.834 96.0587 157.964 96.0587 151.957C96.0587 150.447 95.7557 149.008 95.2081 147.701L107.873 138.361C109.173 137.274 109.441 135.958 109.441 134.516V127.485ZM90.7058 151.957C90.7058 154.961 88.3092 157.395 85.3529 157.395C82.3965 157.395 79.9999 154.961 79.9999 151.957C79.9999 148.954 82.3965 146.519 85.3529 146.519C88.3092 146.519 90.7058 148.954 90.7058 151.957ZM144.235 124.766C142.757 124.766 141.559 125.983 141.559 127.485V134.516V134.516C141.559 135.958 141.559 137.274 143.127 138.361L155.909 147.432C155.287 148.81 154.941 150.342 154.941 151.957C154.941 157.964 159.734 162.834 165.647 162.834C171.56 162.834 176.353 157.964 176.353 151.957C176.353 145.95 171.56 141.08 165.647 141.08C163.237 141.08 161.014 141.889 159.225 143.254L146.912 134.516V127.485C146.912 125.983 145.713 124.766 144.235 124.766ZM160.294 151.957C160.294 154.961 162.691 157.395 165.647 157.395C168.603 157.395 171 154.961 171 151.957C171 148.954 168.603 146.519 165.647 146.519C162.691 146.519 160.294 148.954 160.294 151.957ZM125.5 124.766C126.978 124.766 128.176 125.983 128.176 127.485V141.423C132.794 142.631 136.206 146.889 136.206 151.957C136.206 157.964 131.413 162.834 125.5 162.834C119.587 162.834 114.794 157.964 114.794 151.957C114.794 146.889 118.206 142.631 122.823 141.423V127.485C122.823 125.983 124.022 124.766 125.5 124.766ZM130.853 151.957C130.853 154.961 128.456 157.395 125.5 157.395C122.544 157.395 120.147 154.961 120.147 151.957C120.147 148.954 122.544 146.519 125.5 146.519C128.456 146.519 130.853 148.954 130.853 151.957Z" fill="#3180FF"/>
<path fill-rule="evenodd" clip-rule="evenodd" d="M96.7976 70.3828C95.729 70.3828 94.7207 70.9266 94.5087 72.1551C93.3059 79.1939 93.2086 85.0662 93.3291 89.9668C93.3588 91.1735 94.3302 92.1359 95.5183 92.1359H155.482C156.67 92.1359 157.642 91.1735 157.671 89.9668C157.671 84.7943 158.015 80.2815 156.492 72.1551C156.208 71.1082 155.271 70.3828 154.203 70.3828H96.7976ZM112.653 77.4526C112.357 77.4526 112.118 77.6961 112.118 77.9964V84.5224C112.118 84.8227 112.357 85.0662 112.653 85.0662H138.347C138.643 85.0662 138.883 84.8227 138.883 84.5224V77.9964C138.883 77.6961 138.643 77.4526 138.347 77.4526H112.653Z" fill="url(#paint2_linear_197_1286)"/>
<path d="M23.0097 215.245C19.8558 215.245 17.129 214.456 14.8293 212.879C12.5625 211.269 10.9527 209.085 10 206.325L15.47 204.305C16.1927 205.914 17.2276 207.212 18.5746 208.198C19.9215 209.15 21.4656 209.627 23.2068 209.627C25.0137 209.627 26.4428 209.216 27.4941 208.395C28.5782 207.573 29.1203 206.391 29.1203 204.847C29.1203 204.222 28.9724 203.648 28.6768 203.122C28.3811 202.563 28.0361 202.103 27.6419 201.742C27.2805 201.381 26.722 201.019 25.9664 200.658C25.2108 200.297 24.5702 200.017 24.0445 199.82C23.5189 199.59 22.7469 199.311 21.7284 198.982C20.4143 198.523 19.3959 198.161 18.6731 197.898C17.9832 197.636 17.0798 197.208 15.9628 196.617C14.8786 195.993 14.0409 195.369 13.4495 194.744C12.891 194.12 12.3818 193.299 11.9219 192.281C11.4948 191.229 11.2813 190.079 11.2813 188.831C11.2813 186.203 12.2997 184.002 14.3366 182.228C16.3734 180.454 19.1331 179.567 22.6154 179.567C25.5065 179.567 27.9047 180.256 29.8102 181.636C31.7156 182.983 32.9969 184.757 33.654 186.958L28.3318 188.732C27.2805 186.367 25.2437 185.184 22.2212 185.184C20.6771 185.184 19.4616 185.513 18.5746 186.17C17.7204 186.794 17.2933 187.698 17.2933 188.88C17.2933 189.669 17.6218 190.375 18.2789 190.999C18.9688 191.623 19.6916 192.1 20.4472 192.428C21.2356 192.724 22.3855 193.118 23.8967 193.611C24.8823 193.972 25.6215 194.252 26.1143 194.449C26.6399 194.613 27.3627 194.909 28.2825 195.336C29.2024 195.763 29.9252 196.157 30.4508 196.519C30.9765 196.847 31.5678 197.307 32.2249 197.898C32.9148 198.49 33.4404 199.114 33.8018 199.771C34.1632 200.395 34.4753 201.151 34.7381 202.038C35.0009 202.892 35.1323 203.828 35.1323 204.847C35.1323 208.066 33.9825 210.612 31.6828 212.485C29.416 214.325 26.5249 215.245 23.0097 215.245Z" fill="white"/>
<path d="M51.9435 215.245C48.3626 215.245 45.5208 214.078 43.4183 211.746C41.3485 209.38 40.3137 206.144 40.3137 202.038C40.3137 197.964 41.365 194.761 43.4675 192.428C45.5701 190.063 48.3954 188.88 51.9435 188.88C55.1631 188.88 57.7913 189.882 59.8282 191.886C61.8979 193.89 62.9328 196.831 62.9328 200.707C62.9328 202.054 62.8671 203.237 62.7356 204.255H46.03C46.1286 206.029 46.7364 207.458 47.8534 208.543C49.0032 209.627 50.3666 210.169 51.9435 210.169C54.1775 210.169 55.9516 209.298 57.2657 207.557L60.9123 211.302C58.7112 213.93 55.7216 215.245 51.9435 215.245ZM46.0793 199.475H57.2164C57.085 197.668 56.5265 196.305 55.5409 195.385C54.5553 194.432 53.3562 193.956 51.9435 193.956C50.3009 193.956 48.9375 194.416 47.8534 195.336C46.8021 196.223 46.2107 197.603 46.0793 199.475Z" fill="white"/>
<path d="M69.3145 214.653V189.472H75.0802V192.083C76.0986 189.948 77.8234 188.88 80.2545 188.88C82.0285 188.88 83.589 189.455 84.936 190.605L84.0982 195.878C82.8498 194.991 81.4207 194.547 79.811 194.547C78.4968 194.547 77.3799 195.007 76.46 195.927C75.5401 196.847 75.0802 198.391 75.0802 200.559V214.653H69.3145Z" fill="white"/>
<path d="M97.1569 214.653L87.9417 189.472H93.8059L99.3745 205.192C99.7687 206.506 99.9987 207.261 100.064 207.458C100.261 206.604 100.491 205.849 100.754 205.192L106.224 189.472H112.088L102.873 214.653H97.1569Z" fill="white"/>
<path d="M126.257 215.245C122.676 215.245 119.834 214.078 117.731 211.746C115.662 209.38 114.627 206.144 114.627 202.038C114.627 197.964 115.678 194.761 117.781 192.428C119.883 190.063 122.709 188.88 126.257 188.88C129.476 188.88 132.104 189.882 134.141 191.886C136.211 193.89 137.246 196.831 137.246 200.707C137.246 202.054 137.18 203.237 137.049 204.255H120.343C120.442 206.029 121.05 207.458 122.167 208.543C123.316 209.627 124.68 210.169 126.257 210.169C128.491 210.169 130.265 209.298 131.579 207.557L135.225 211.302C133.024 213.93 130.035 215.245 126.257 215.245ZM120.392 199.475H131.53C131.398 197.668 130.84 196.305 129.854 195.385C128.868 194.432 127.669 193.956 126.257 193.956C124.614 193.956 123.251 194.416 122.167 195.336C121.115 196.223 120.524 197.603 120.392 199.475Z" fill="white"/>
<path d="M143.135 214.653V189.472H148.901V192.083C149.919 189.948 151.644 188.88 154.075 188.88C155.849 188.88 157.409 189.455 158.756 190.605L157.919 195.878C156.67 194.991 155.241 194.547 153.631 194.547C152.317 194.547 151.2 195.007 150.28 195.927C149.36 196.847 148.901 198.391 148.901 200.559V214.653H143.135Z" fill="white"/>
<path d="M174.733 215.245C172.302 215.245 170.396 214.374 169.016 212.633V221.897L163.251 224.558V189.472H169.016V191.394C170.396 189.718 172.318 188.88 174.782 188.88C177.969 188.88 180.482 190.047 182.322 192.379C184.194 194.679 185.131 197.915 185.131 202.087C185.131 206.161 184.178 209.38 182.272 211.746C180.367 214.078 177.854 215.245 174.733 215.245ZM173.895 209.725C175.636 209.725 176.983 209.068 177.936 207.754C178.889 206.44 179.365 204.551 179.365 202.087C179.365 199.755 178.889 197.882 177.936 196.469C176.983 195.057 175.636 194.35 173.895 194.35C171.76 194.35 170.133 195.172 169.016 196.814V207.261C170.166 208.904 171.792 209.725 173.895 209.725Z" fill="white"/>
<path d="M201.114 215.245C197.566 215.245 194.757 214.078 192.687 211.746C190.617 209.413 189.582 206.194 189.582 202.087C189.582 197.98 190.617 194.761 192.687 192.428C194.757 190.063 197.566 188.88 201.114 188.88C204.662 188.88 207.471 190.063 209.54 192.428C211.643 194.761 212.694 197.98 212.694 202.087C212.694 206.194 211.659 209.413 209.59 211.746C207.52 214.078 204.695 215.245 201.114 215.245ZM201.114 209.725C202.921 209.725 204.333 209.052 205.352 207.705C206.403 206.358 206.929 204.485 206.929 202.087C206.929 199.689 206.403 197.8 205.352 196.42C204.333 195.04 202.921 194.35 201.114 194.35C199.372 194.35 197.976 195.057 196.925 196.469C195.874 197.849 195.348 199.722 195.348 202.087C195.348 204.452 195.857 206.325 196.876 207.705C197.927 209.052 199.34 209.725 201.114 209.725Z" fill="white"/>
<path d="M228.086 215.245C224.866 215.245 222.32 214.078 220.448 211.746C218.575 209.413 217.639 206.177 217.639 202.038C217.639 197.997 218.608 194.794 220.546 192.428C222.484 190.063 224.998 188.88 228.086 188.88C230.517 188.88 232.406 189.669 233.753 191.246V181.686L239.519 179.074V214.653H233.753V212.83C232.505 214.44 230.615 215.245 228.086 215.245ZM228.973 209.725C231.108 209.725 232.702 208.92 233.753 207.311V196.765C232.669 195.155 231.075 194.35 228.973 194.35C227.199 194.35 225.819 195.024 224.833 196.371C223.881 197.685 223.404 199.574 223.404 202.038C223.404 204.37 223.897 206.243 224.883 207.656C225.868 209.035 227.232 209.725 228.973 209.725Z" fill="white"/>
<defs>
<linearGradient id="paint0_linear_197_1286" x1="125.5" y1="15.9999" x2="125.5" y2="64.9444" gradientUnits="userSpaceOnUse">
<stop stop-color="#36E7FC"/>
<stop offset="1" stop-color="#3CC5FE"/>
</linearGradient>
<linearGradient id="paint1_linear_197_1286" x1="141.492" y1="119.433" x2="141.492" y2="97.4543" gradientUnits="userSpaceOnUse">
<stop stop-color="#3180FF"/>
<stop offset="1" stop-color="#3FB1FE"/>
</linearGradient>
<linearGradient id="paint2_linear_197_1286" x1="125.5" y1="70.3828" x2="125.5" y2="92.1359" gradientUnits="userSpaceOnUse">
<stop stop-color="#3BC6FD"/>
<stop offset="1" stop-color="#32ACFF"/>
</linearGradient>
</defs>
</svg>
