<svg width="266" height="72" viewBox="0 0 266 72" fill="none" xmlns="http://www.w3.org/2000/svg">
<g clip-path="url(#clip0_197_1337)">
<path d="M11.546 23.585C13.6418 15.6264 17.73 8.3597 23.4098 2.49753L23.9773 1.9118C24.4037 1.47171 25.1018 1.47595 25.5231 1.92118L26.3851 2.8323C31.884 8.64462 35.8614 15.7735 37.9515 23.5634C38.1303 24.2297 37.6385 24.8868 36.961 24.8868H12.5251C11.8583 24.8868 11.3731 24.2417 11.546 23.585Z" fill="url(#paint0_linear_197_1337)"/>
<path fill-rule="evenodd" clip-rule="evenodd" d="M11.2367 39.8254C10.6091 39.8254 10.0525 40.1989 10.0902 40.98C10.2264 43.8091 10.5927 46.1744 10.9102 48.5268L10.9775 48.8158C11.081 49.4112 11.6072 49.7846 12.1797 49.7846H37.2912C37.8175 49.7846 38.2776 49.4227 38.4112 48.9036L38.4939 48.5823C38.9169 46.5479 39.1611 44.4316 39.4185 40.9001C39.4696 40.1989 38.9356 39.8254 38.3514 39.8254H11.2367ZM18.8946 43.0622C18.7598 43.0622 18.6505 43.1736 18.6505 43.3112V46.2989C18.6505 46.4364 18.7598 46.5479 18.8946 46.5479H30.615C30.7499 46.5479 30.8592 46.4364 30.8592 46.2989V43.3112C30.8592 43.1736 30.7499 43.0622 30.615 43.0622H18.8946Z" fill="url(#paint1_linear_197_1337)"/>
<path fill-rule="evenodd" clip-rule="evenodd" d="M17.4297 53.5193C17.4297 52.8318 16.8831 52.2744 16.2088 52.2744C15.5345 52.2744 14.9879 52.8318 14.9879 53.5193V56.7384L9.4739 60.8196C8.64097 60.1461 7.58748 59.7438 6.44184 59.7438C3.74476 59.7438 1.55835 61.9733 1.55835 64.7234C1.55835 67.4736 3.74476 69.703 6.44184 69.703C9.13892 69.703 11.3253 67.4736 11.3253 64.7234C11.3253 64.0319 11.1871 63.3734 10.9373 62.7749L16.7145 58.4989C17.3076 58.001 17.4297 57.3987 17.4297 56.7384V53.5193ZM8.88359 64.7234C8.88359 66.0985 7.79038 67.2132 6.44184 67.2132C5.0933 67.2132 4.0001 66.0985 4.0001 64.7234C4.0001 63.3483 5.0933 62.2336 6.44184 62.2336C7.79038 62.2336 8.88359 63.3483 8.88359 64.7234ZM33.3011 52.2744C32.6268 52.2744 32.0802 52.8318 32.0802 53.5193V56.7384V56.7384C32.0802 57.3987 32.0802 58.001 32.7954 58.4989L38.6259 62.6518C38.3425 63.2826 38.1846 63.9842 38.1846 64.7234C38.1846 67.4736 40.371 69.703 43.0681 69.703C45.7651 69.703 47.9515 67.4736 47.9515 64.7234C47.9515 61.9733 45.7651 59.7438 43.0681 59.7438C41.969 59.7438 40.9547 60.114 40.1386 60.7389L34.522 56.7384V53.5193C34.522 52.8318 33.9754 52.2744 33.3011 52.2744ZM40.6263 64.7234C40.6263 66.0985 41.7195 67.2132 43.0681 67.2132C44.4166 67.2132 45.5098 66.0985 45.5098 64.7234C45.5098 63.3483 44.4166 62.2336 43.0681 62.2336C41.7195 62.2336 40.6263 63.3483 40.6263 64.7234ZM24.7549 52.2744C25.4292 52.2744 25.9758 52.8318 25.9758 53.5193V59.9007C28.0821 60.4535 29.6384 62.4031 29.6384 64.7234C29.6384 67.4736 27.452 69.703 24.7549 69.703C22.0579 69.703 19.8715 67.4736 19.8715 64.7234C19.8715 62.4031 21.4278 60.4535 23.5341 59.9007V53.5193C23.5341 52.8318 24.0807 52.2744 24.7549 52.2744ZM27.1967 64.7234C27.1967 66.0985 26.1035 67.2132 24.7549 67.2132C23.4064 67.2132 22.3132 66.0985 22.3132 64.7234C22.3132 63.3483 23.4064 62.2336 24.7549 62.2336C26.1035 62.2336 27.1967 63.3483 27.1967 64.7234Z" fill="#106BFE"/>
<path fill-rule="evenodd" clip-rule="evenodd" d="M11.6622 27.3765C11.1748 27.3765 10.7149 27.6254 10.6181 28.1878C10.0695 31.4104 10.0251 34.0989 10.0801 36.3426C10.0936 36.895 10.5367 37.3357 11.0787 37.3357H38.4312C38.9731 37.3357 39.4162 36.895 39.4298 36.3426C39.4298 33.9744 39.5868 31.9084 38.8917 28.1878C38.7625 27.7086 38.3351 27.3765 37.8476 27.3765H11.6622ZM18.8947 30.6132C18.7599 30.6132 18.6506 30.7247 18.6506 30.8622V33.8499C18.6506 33.9874 18.7599 34.0989 18.8947 34.0989H30.6151C30.75 34.0989 30.8593 33.9874 30.8593 33.8499V30.8622C30.8593 30.7247 30.75 30.6132 30.6151 30.6132H18.8947Z" fill="url(#paint2_linear_197_1337)"/>
<path d="M72.904 49.8798C70.1349 49.8798 67.7408 49.1875 65.7216 47.8029C63.7313 46.3895 62.3179 44.4714 61.4814 42.0484L66.2841 40.2744C66.9187 41.6878 67.8273 42.8272 69.0099 43.6925C70.1926 44.529 71.5483 44.9473 73.0771 44.9473C74.6635 44.9473 75.9183 44.5867 76.8413 43.8656C77.7932 43.1445 78.2691 42.1061 78.2691 40.7504C78.2691 40.2023 78.1393 39.6975 77.8797 39.236C77.6201 38.7457 77.3173 38.3418 76.9711 38.0245C76.6538 37.7072 76.1635 37.3899 75.5 37.0727C74.8366 36.7554 74.2741 36.5102 73.8126 36.3371C73.3511 36.1352 72.6732 35.89 71.7791 35.6016C70.6253 35.1977 69.7311 34.8804 69.0965 34.6497C68.4907 34.4189 67.6975 34.0439 66.7168 33.5247C65.7649 32.9767 65.0294 32.4286 64.5102 31.8806C64.0198 31.3325 63.5727 30.6114 63.1689 29.7172C62.7939 28.7942 62.6064 27.7846 62.6064 26.6885C62.6064 24.3809 63.5006 22.4483 65.289 20.8907C67.0773 19.3331 69.5003 18.5543 72.5579 18.5543C75.0962 18.5543 77.2019 19.16 78.8749 20.3715C80.5479 21.5541 81.6728 23.1117 82.2497 25.0443L77.5769 26.602C76.6538 24.5251 74.8655 23.4867 72.2117 23.4867C70.856 23.4867 69.7888 23.7752 69.0099 24.3521C68.26 24.9001 67.885 25.6934 67.885 26.7318C67.885 27.424 68.1734 28.0442 68.7503 28.5923C69.3561 29.1403 69.9907 29.5586 70.6541 29.847C71.3464 30.1066 72.3559 30.4528 73.6828 30.8854C74.5482 31.2027 75.1972 31.4479 75.6298 31.621C76.0914 31.7652 76.7259 32.0248 77.5336 32.3998C78.3413 32.7748 78.9758 33.1209 79.4374 33.4382C79.8989 33.7266 80.4181 34.1305 80.995 34.6497C81.6007 35.1689 82.0622 35.7169 82.3795 36.2938C82.6968 36.8419 82.9709 37.5053 83.2016 38.2841C83.4324 39.0341 83.5477 39.8562 83.5477 40.7504C83.5477 43.5772 82.5382 45.8126 80.519 47.4568C78.5287 49.0721 75.9904 49.8798 72.904 49.8798Z" fill="black"/>
<path d="M98.3081 49.8798C95.164 49.8798 92.6689 48.8558 90.8228 46.8078C89.0056 44.731 88.097 41.8897 88.097 38.2841C88.097 34.7074 89.02 31.895 90.8661 29.847C92.7122 27.7702 95.1928 26.7318 98.3081 26.7318C101.135 26.7318 103.442 27.6115 105.231 29.3711C107.048 31.1306 107.957 33.7122 107.957 37.1159C107.957 38.2986 107.899 39.337 107.784 40.2312H93.116C93.2025 41.7888 93.7362 43.0435 94.7169 43.9954C95.7265 44.9473 96.9235 45.4232 98.3081 45.4232C100.27 45.4232 101.827 44.6588 102.981 43.1301L106.183 46.4184C104.25 48.726 101.625 49.8798 98.3081 49.8798ZM93.1593 36.0342H102.938C102.822 34.4478 102.332 33.2507 101.467 32.443C100.601 31.6065 99.5484 31.1883 98.3081 31.1883C96.8658 31.1883 95.6688 31.5921 94.7169 32.3998C93.7938 33.1786 93.2746 34.3901 93.1593 36.0342Z" fill="black"/>
<path d="M113.56 49.3606V27.251H118.622V29.5441C119.516 27.6692 121.031 26.7318 123.165 26.7318C124.723 26.7318 126.093 27.2366 127.276 28.2461L126.54 32.8757C125.444 32.0969 124.189 31.7075 122.776 31.7075C121.622 31.7075 120.641 32.1113 119.834 32.919C119.026 33.7266 118.622 35.0824 118.622 36.9861V49.3606H113.56Z" fill="black"/>
<path d="M138.006 49.3606L129.915 27.251H135.063L139.953 41.0532C140.299 42.207 140.501 42.8705 140.558 43.0435C140.731 42.2936 140.933 41.6301 141.164 41.0532L145.967 27.251H151.116L143.025 49.3606H138.006Z" fill="black"/>
<path d="M163.555 49.8798C160.411 49.8798 157.916 48.8558 156.07 46.8078C154.253 44.731 153.344 41.8897 153.344 38.2841C153.344 34.7074 154.267 31.895 156.113 29.847C157.959 27.7702 160.44 26.7318 163.555 26.7318C166.382 26.7318 168.69 27.6115 170.478 29.3711C172.295 31.1306 173.204 33.7122 173.204 37.1159C173.204 38.2986 173.146 39.337 173.031 40.2312H158.363C158.45 41.7888 158.983 43.0435 159.964 43.9954C160.974 44.9473 162.171 45.4232 163.555 45.4232C165.517 45.4232 167.074 44.6588 168.228 43.1301L171.43 46.4184C169.497 48.726 166.873 49.8798 163.555 49.8798ZM158.407 36.0342H168.185C168.07 34.4478 167.579 33.2507 166.714 32.443C165.849 31.6065 164.796 31.1883 163.555 31.1883C162.113 31.1883 160.916 31.5921 159.964 32.3998C159.041 33.1786 158.522 34.3901 158.407 36.0342Z" fill="black"/>
<path d="M178.375 49.3606V27.251H183.437V29.5441C184.331 27.6692 185.845 26.7318 187.98 26.7318C189.537 26.7318 190.908 27.2366 192.09 28.2461L191.355 32.8757C190.259 32.0969 189.004 31.7075 187.59 31.7075C186.437 31.7075 185.456 32.1113 184.648 32.919C183.841 33.7266 183.437 35.0824 183.437 36.9861V49.3606H178.375Z" fill="black"/>
<path d="M206.118 49.8798C203.983 49.8798 202.31 49.1154 201.099 47.5866V55.7208L196.036 58.0573V27.251H201.099V28.9384C202.31 27.4673 203.998 26.7318 206.161 26.7318C208.959 26.7318 211.165 27.7558 212.781 29.8037C214.425 31.8229 215.247 34.6641 215.247 38.3274C215.247 41.9042 214.41 44.731 212.737 46.8078C211.064 48.8558 208.858 49.8798 206.118 49.8798ZM205.382 45.0338C206.911 45.0338 208.093 44.4569 208.93 43.3031C209.766 42.1493 210.185 40.4908 210.185 38.3274C210.185 36.2794 209.766 34.6353 208.93 33.3949C208.093 32.1546 206.911 31.5344 205.382 31.5344C203.507 31.5344 202.079 32.2556 201.099 33.6978V42.8705C202.108 44.3127 203.536 45.0338 205.382 45.0338Z" fill="black"/>
<path d="M229.28 49.8798C226.165 49.8798 223.699 48.8558 221.881 46.8078C220.064 44.7598 219.156 41.933 219.156 38.3274C219.156 34.7218 220.064 31.895 221.881 29.847C223.699 27.7702 226.165 26.7318 229.28 26.7318C232.395 26.7318 234.862 27.7702 236.679 29.847C238.525 31.895 239.448 34.7218 239.448 38.3274C239.448 41.933 238.539 44.7598 236.722 46.8078C234.905 48.8558 232.424 49.8798 229.28 49.8798ZM229.28 45.0338C230.867 45.0338 232.107 44.4425 233.001 43.2599C233.924 42.0772 234.386 40.4331 234.386 38.3274C234.386 36.2217 233.924 34.5631 233.001 33.3517C232.107 32.1402 230.867 31.5344 229.28 31.5344C227.751 31.5344 226.525 32.1546 225.602 33.3949C224.679 34.6064 224.218 36.2506 224.218 38.3274C224.218 40.4042 224.665 42.0484 225.559 43.2599C226.482 44.4425 227.722 45.0338 229.28 45.0338Z" fill="black"/>
<path d="M252.962 49.8798C250.135 49.8798 247.9 48.8558 246.255 46.8078C244.611 44.7598 243.789 41.9186 243.789 38.2841C243.789 34.7362 244.64 31.9238 246.342 29.847C248.044 27.7702 250.25 26.7318 252.962 26.7318C255.096 26.7318 256.755 27.424 257.938 28.8086V20.4147L263 18.1216V49.3606H257.938V47.7597C256.841 49.1731 255.183 49.8798 252.962 49.8798ZM253.741 45.0338C255.616 45.0338 257.015 44.3271 257.938 42.9137V33.6545C256.986 32.2411 255.587 31.5344 253.741 31.5344C252.183 31.5344 250.972 32.1258 250.106 33.3084C249.27 34.4622 248.851 36.1208 248.851 38.2841C248.851 40.3321 249.284 41.9763 250.149 43.2166C251.015 44.4281 252.212 45.0338 253.741 45.0338Z" fill="black"/>
</g>
<defs>
<linearGradient id="paint0_linear_197_1337" x1="24.7549" y1="2.47862" x2="24.7549" y2="24.8868" gradientUnits="userSpaceOnUse">
<stop stop-color="#36E7FC"/>
<stop offset="1" stop-color="#3CC5FE"/>
</linearGradient>
<linearGradient id="paint1_linear_197_1337" x1="32.0413" y1="49.8329" x2="32.0413" y2="39.7705" gradientUnits="userSpaceOnUse">
<stop stop-color="#0F74FF"/>
<stop offset="1" stop-color="#33AEFF"/>
</linearGradient>
<linearGradient id="paint2_linear_197_1337" x1="24.7549" y1="27.3765" x2="24.7549" y2="37.3357" gradientUnits="userSpaceOnUse">
<stop stop-color="#3BC6FD"/>
<stop offset="1" stop-color="#32ACFF"/>
</linearGradient>
<clipPath id="clip0_197_1337">
<rect width="266" height="72" fill="white"/>
</clipPath>
</defs>
</svg>
